<svg width="500" height="500" viewBox="0 0 500 500" fill="none" xmlns="http://www.w3.org/2000/svg">
<circle cx="250" cy="250" r="250" fill="white"/>
<path fill-rule="evenodd" clip-rule="evenodd" d="M167.58 288.862V224.848H142.181V288.862H167.58ZM142.181 201V218.572H167.58V201H142.181ZM108.781 221.961H105.797C104.019 221.961 101.796 222.129 99.1292 222.463C85.202 225.685 78.2384 232.965 78.2384 244.304C78.2384 247.734 79.1273 250.998 80.9053 254.094C83.8685 258.78 90.2606 262.42 100.082 265.014C109.014 266.687 113.48 268.696 113.48 271.039C113.48 272.712 111.596 273.549 107.828 273.549H106.241C99.0022 273.549 91.8057 271.666 84.6517 267.901H84.3977C84.1437 267.943 81.0111 272.628 75 281.959V282.21C84.9903 288.736 95.9754 292 107.955 292H109.86C111.765 292 114.263 291.833 117.353 291.498C131.28 288.611 138.244 281.331 138.244 269.658C138.244 264.01 136.275 259.491 132.338 256.102C129.206 253.257 122.814 250.537 113.162 247.944C106.389 246.479 103.003 245.056 103.003 243.676C103.468 241.5 104.992 240.412 107.574 240.412H109.162C111.998 240.412 115.49 240.998 119.639 242.17L128.338 244.555C133.884 234.932 136.656 229.911 136.656 229.492C127.217 224.472 117.925 221.961 108.781 221.961ZM241.491 288.862H217.616V255.475C217.616 249.24 215.415 245.391 211.012 243.927C210.081 243.76 209.319 243.676 208.727 243.676H207.203C202.715 243.676 199.752 246.27 198.313 251.458C198.143 252.085 198.059 252.839 198.059 253.717V288.862H173.93V224.848H198.059V232.881C203.816 226.02 210.335 222.589 217.616 222.589H219.394C229.85 222.589 236.877 227.777 240.475 238.153C241.153 241.291 241.491 244.136 241.491 246.688V288.862ZM249.936 201.628V224.848H243.523V242.546H249.936V254.721C249.936 270.244 255.376 280.62 266.255 285.85C272.182 287.858 278.109 288.862 284.035 288.862H294.321V271.603C284.966 271.143 279.569 269.909 278.13 267.901C276.267 265.348 275.336 262.629 275.336 259.742V242.546H294.321V224.848H275.336V201.628H249.936ZM343.85 223.844L351.216 225.35V248.445H347.406C337.585 248.445 331.15 251.123 328.102 256.479C326.24 259.115 325.308 263.8 325.308 270.536V288.862H300.671V224.848H324.801V237.902L328.61 231.626C332.674 226.438 337.754 223.844 343.85 223.844ZM380.425 266.896C379.579 264.763 379.156 261.792 379.156 257.985V255.976C379.156 249.826 380.848 245.642 384.234 243.425C386.054 242.923 387.579 242.672 388.807 242.672H390.33C395.749 243.216 398.458 244.555 398.458 246.688C399.473 247.567 400.065 251.165 400.235 257.483C400.235 266.06 397.528 270.871 392.109 271.917C391.304 271.917 390.458 272.001 389.568 272.168C384.995 272.168 381.947 270.411 380.425 266.896ZM370.012 288.235C374.075 289.741 378.138 290.494 382.204 290.494C388.679 290.494 394.352 288.485 399.22 284.469H399.473V288.862H424.936L425 224.848H399.602V230.622C394.734 226.606 389.609 224.597 384.234 224.597H380.932C370.899 224.597 362.772 229.283 356.549 238.655C353.671 243.634 352.231 249.24 352.231 255.475V256.228C352.231 271.666 358.158 282.335 370.012 288.235ZM241.046 201.079H173.745V218.526H241.046V201.079Z" fill="url(#paint0_linear_3820_402)"/>
<defs>
<linearGradient id="paint0_linear_3820_402" x1="75" y1="246.5" x2="425" y2="246.5" gradientUnits="userSpaceOnUse">
<stop stop-color="#6516CC"/>
<stop offset="1" stop-color="#2871FA"/>
</linearGradient>
</defs>
</svg>
